<svg width="1280" height="480" viewBox="0 0 1280 480" fill="none" xmlns="http://www.w3.org/2000/svg" role="img" aria-labelledby="title desc">
  <title id="title">leslie2046 GitHub profile header</title>
  <desc id="desc">A warm editorial banner with geometric shapes and the text leslie2046.</desc>
  <rect width="1280" height="480" rx="28" fill="#F4EFE7"/>
  <rect x="28" y="28" width="1224" height="424" rx="22" stroke="#D8D0C4" stroke-width="1.5"/>

  <path d="M76 102H486" stroke="#DDD5CA" stroke-width="1.5"/>
  <path d="M76 344H512" stroke="#DDD5CA" stroke-width="1.5"/>
  <path d="M76 374H380" stroke="#E3DCD2" stroke-width="1"/>

  <text x="76" y="84" fill="#8B7F72" font-family="'Segoe UI', Arial, sans-serif" font-size="15" letter-spacing="4">PROFILE README</text>
  <text x="76" y="210" fill="#171412" font-family="Georgia, 'Times New Roman', serif" font-size="88">leslie2046</text>
  <text x="76" y="262" fill="#4F463E" font-family="'Segoe UI', Arial, sans-serif" font-size="26">Practical AI tooling for real workflows.</text>
  <text x="76" y="308" fill="#7E7368" font-family="'Segoe UI', Arial, sans-serif" font-size="18">plugins / retrieval / model integrations</text>
  <text x="76" y="404" fill="#9A8F84" font-family="'Segoe UI', Arial, sans-serif" font-size="16">upstream fixes / useful software / dependable workflows</text>

  <circle cx="1016" cy="222" r="138" fill="#E8DED0"/>
  <circle cx="1016" cy="222" r="138" stroke="#1E1A16" stroke-opacity="0.08" stroke-width="1.5"/>
  <circle cx="1016" cy="222" r="98" fill="#F6F2EA" stroke="#D5CBBB" stroke-width="1.5"/>

  <path d="M818 222C818 112.65 906.65 24 1016 24" stroke="#1E1A16" stroke-opacity="0.14" stroke-width="1.5" stroke-linecap="round"/>
  <path d="M1016 420C1125.35 420 1214 331.35 1214 222" stroke="#1E1A16" stroke-opacity="0.14" stroke-width="1.5" stroke-linecap="round"/>

  <rect x="868" y="120" width="236" height="22" rx="11" fill="#D98561"/>
  <rect x="930" y="314" width="208" height="22" rx="11" fill="#1B1815"/>
  <rect x="1102" y="182" width="82" height="82" rx="18" fill="#F9F6F0" stroke="#D7CDC0" stroke-width="1.5"/>
  <rect x="1140" y="104" width="68" height="10" rx="5" fill="#1B1815" fill-opacity="0.9"/>
  <rect x="840" y="350" width="110" height="10" rx="5" fill="#D3C7B8"/>

  <path d="M878 210H1128" stroke="#C5B8A8" stroke-width="1.5"/>
  <path d="M886 234H1112" stroke="#D4C8B9" stroke-width="1"/>
  <path d="M886 258H1096" stroke="#D4C8B9" stroke-width="1"/>

  <circle cx="1126" cy="354" r="16" fill="#D98561"/>
  <circle cx="1162" cy="354" r="16" fill="#1B1815"/>
</svg>
